<svg width="20" height="20" viewBox="0 0 20 20" fill="none" xmlns="http://www.w3.org/2000/svg">
<path d="M16.2712 7.56445C16.2712 7.56445 15.7691 13.6724 15.4778 16.2453C15.3391 17.4742 14.5652 18.1942 13.2975 18.2169C10.8851 18.2595 8.46988 18.2623 6.05838 18.2124C4.83876 18.1879 4.07777 17.4587 3.94184 16.2517C3.64873 13.6561 3.14941 7.56445 3.14941 7.56445" stroke="white" stroke-width="1.5" stroke-linecap="round" stroke-linejoin="round"/>
<path d="M7.83569 15.5781L7.83569 9.34521" stroke="white" stroke-width="1.5" stroke-linecap="round" stroke-linejoin="round"/>
<path d="M11.5847 15.5781L11.5847 9.34521" stroke="white" stroke-width="1.5" stroke-linecap="round" stroke-linejoin="round"/>
<path d="M17.8723 5.1067H1.97803" stroke="white" stroke-width="1.5" stroke-linecap="round" stroke-linejoin="round"/>
<path d="M14.8097 5.10663C14.0739 5.10663 13.4403 4.61245 13.296 3.92773L13.0682 2.845C12.9277 2.34548 12.4515 2 11.9088 2H7.94138C7.3987 2 6.92257 2.34548 6.78198 2.845L6.55422 3.92773C6.40988 4.61245 5.77628 5.10663 5.04053 5.10663" stroke="white" stroke-width="1.5" stroke-linecap="round" stroke-linejoin="round"/>
</svg>
