<svg width="17" height="17" viewBox="0 0 17 17" fill="none" xmlns="http://www.w3.org/2000/svg">
<path d="M14.4736 6.60022C14.4736 6.60022 14.0224 12.088 13.7608 14.3997C13.6361 15.5038 12.9408 16.1507 11.8018 16.1711C9.63431 16.2094 7.46434 16.2118 5.29769 16.167C4.2019 16.145 3.51818 15.4899 3.39605 14.4054C3.1327 12.0734 2.68408 6.60022 2.68408 6.60022" stroke="#ED3A3A" stroke-width="1.5" stroke-linecap="round" stroke-linejoin="round"/>
<path d="M6.89465 13.8002L6.89465 8.2002" stroke="#ED3A3A" stroke-width="1.5" stroke-linecap="round" stroke-linejoin="round"/>
<path d="M10.2631 13.8002L10.2631 8.2002" stroke="#ED3A3A" stroke-width="1.5" stroke-linecap="round" stroke-linejoin="round"/>
<path d="M15.9121 4.39194H1.63171" stroke="#ED3A3A" stroke-width="1.5" stroke-linecap="round" stroke-linejoin="round"/>
<path d="M13.1604 4.39191C12.4994 4.39191 11.9301 3.94791 11.8004 3.33271L11.5958 2.35991C11.4695 1.91111 11.0417 1.60071 10.5541 1.60071H6.98949C6.50192 1.60071 6.07413 1.91111 5.94781 2.35991L5.74318 3.33271C5.61349 3.94791 5.04423 4.39191 4.38318 4.39191" stroke="#ED3A3A" stroke-width="1.5" stroke-linecap="round" stroke-linejoin="round"/>
</svg>
