<svg width="12" height="12" viewBox="0 0 12 12" fill="none" xmlns="http://www.w3.org/2000/svg">
<path d="M4.5 8.50012H7.5M4.5 7.00012H7.5M6.50019 1.50056C6.45242 1.50012 6.39869 1.50012 6.33736 1.50012H4.1001C3.54005 1.50012 3.25981 1.50012 3.0459 1.60912C2.85774 1.70499 2.70487 1.85786 2.60899 2.04602C2.5 2.25993 2.5 2.54017 2.5 3.10022V8.90022C2.5 9.46027 2.5 9.74015 2.60899 9.95407C2.70487 10.1422 2.85774 10.2954 3.0459 10.3912C3.2596 10.5001 3.5395 10.5001 4.09847 10.5001L7.90155 10.5001C8.4605 10.5001 8.74 10.5001 8.9537 10.3912C9.14186 10.2954 9.29524 10.1422 9.39111 9.95406C9.5 9.74036 9.5 9.46087 9.5 8.90191V4.66296C9.5 4.60163 9.49995 4.54789 9.49951 4.50012M6.50019 1.50056C6.64292 1.50186 6.73286 1.50716 6.81909 1.52786C6.92113 1.55235 7.01893 1.59275 7.1084 1.64758C7.20928 1.70941 7.29591 1.79603 7.46875 1.96887L9.03149 3.53161C9.20444 3.70457 9.29043 3.7908 9.35228 3.89172C9.40711 3.98119 9.44767 4.07875 9.47217 4.18079C9.49287 4.26701 9.49821 4.35739 9.49951 4.50012M6.50019 1.50056L6.5 2.90023C6.5 3.46028 6.5 3.7402 6.60899 3.95411C6.70487 4.14227 6.85774 4.29536 7.0459 4.39124C7.2596 4.50012 7.5395 4.50012 8.09846 4.50012H9.49951" stroke="#6D6F81" stroke-linecap="round" stroke-linejoin="round"/>
</svg>
