<svg width="64" height="64" viewBox="0 0 64 64" fill="none" xmlns="http://www.w3.org/2000/svg">
<rect width="64" height="64" rx="32" fill="#F2F4F7"/>
<path d="M32.6667 20H26.4C24.1598 20 23.0397 20 22.184 20.4359C21.4314 20.8194 20.8195 21.4313 20.436 22.184C20 23.0396 20 24.1597 20 26.4V37.6C20 39.8402 20 40.9603 20.436 41.8159C20.8195 42.5686 21.4314 43.1805 22.184 43.564C23.0397 44 24.1598 44 26.4 44H38.6667C39.9066 44 40.5266 44 41.0353 43.8637C42.4156 43.4938 43.4938 42.4156 43.8637 41.0352C44 40.5266 44 39.9066 44 38.6666M41.3333 26.6666V18.6666M37.3333 22.6666H45.3333M30 27.3333C30 28.8061 28.8061 30 27.3333 30C25.8606 30 24.6667 28.8061 24.6667 27.3333C24.6667 25.8605 25.8606 24.6666 27.3333 24.6666C28.8061 24.6666 30 25.8605 30 27.3333ZM35.9867 31.8908L24.7082 42.144C24.0738 42.7207 23.7566 43.0091 23.7286 43.2589C23.7043 43.4754 23.7873 43.6901 23.9509 43.834C24.1397 44 24.5684 44 25.4257 44H37.9413C39.8602 44 40.8196 44 41.5732 43.6776C42.5193 43.2729 43.2729 42.5192 43.6776 41.5732C44 40.8196 44 39.8602 44 37.9413C44 37.2956 44 36.9728 43.9294 36.6722C43.8407 36.2943 43.6706 35.9404 43.431 35.6352C43.2403 35.3922 42.9883 35.1906 42.4841 34.7872L38.7544 31.8035C38.2499 31.3998 37.9976 31.198 37.7197 31.1268C37.4748 31.064 37.2172 31.0721 36.9767 31.1502C36.7039 31.2388 36.4648 31.4562 35.9867 31.8908Z" stroke="#475467" stroke-width="2.66667" stroke-linecap="round" stroke-linejoin="round"/>
</svg>
