<svg width="328" height="194" viewBox="0 0 328 194" fill="none" xmlns="http://www.w3.org/2000/svg">
<g clip-path="url(#clip0_4999_69516)">
<rect width="328" height="194" rx="16" fill="#F2F1FF"/>
<path opacity="0.4" d="M181.022 89.5525C179.893 89.5525 178.398 89.5275 176.537 89.5275C171.997 89.5275 168.264 85.77 168.264 81.1875V73.1475C168.264 72.515 167.759 72 167.133 72H153.909C147.738 72 142.75 77.065 142.75 83.2725V110.21C142.75 116.722 147.976 122 154.424 122H174.116C180.265 122 185.25 116.967 185.25 110.755V90.6775C185.25 90.0425 184.747 89.53 184.119 89.5325C183.062 89.54 181.794 89.5525 181.022 89.5525Z" fill="#918FFD"/>
<path d="M174.21 73.4182C173.462 72.6407 172.157 73.1757 172.157 74.2532V80.8457C172.157 83.6107 174.435 85.8857 177.2 85.8857C178.942 85.9057 181.362 85.9107 183.417 85.9057C184.47 85.9032 185.005 84.6457 184.275 83.8857C181.637 81.1432 176.915 76.2282 174.21 73.4182Z" fill="#918FFD"/>
<path fill-rule="evenodd" clip-rule="evenodd" d="M156.435 95.469H164.897C165.925 95.469 166.76 94.6365 166.76 93.609C166.76 92.5815 165.925 91.7465 164.897 91.7465H156.435C155.407 91.7465 154.575 92.5815 154.575 93.609C154.575 94.6365 155.407 95.469 156.435 95.469ZM156.435 107.955H170.045C171.073 107.955 171.908 107.122 171.908 106.095C171.908 105.067 171.073 104.232 170.045 104.232H156.435C155.408 104.232 154.575 105.067 154.575 106.095C154.575 107.122 155.408 107.955 156.435 107.955Z" fill="#6D79E8"/>
</g>
<defs>
<clipPath id="clip0_4999_69516">
<rect width="328" height="194" fill="white"/>
</clipPath>
</defs>
</svg>
