<svg width="341" height="189" viewBox="0 0 341 189" fill="none" xmlns="http://www.w3.org/2000/svg">
<path opacity="0.3" d="M42.286 40.8315C40.5333 37.7532 40.054 34.1124 40.9503 30.6859C41.8466 27.2594 44.0476 24.3186 47.0837 22.4909C53.3689 18.7694 65.7861 18.361 69.4255 24.7601C73.065 31.1592 63.4185 37.3427 59.6769 43.6964C54.4647 52.5689 45.9481 47.2193 42.286 40.8315Z" fill="#E6E6FF"/>
<path opacity="0.2" d="M68.4711 177.172C67.221 177.624 65.8927 177.822 64.5649 177.752C63.2371 177.683 61.9368 177.348 60.741 176.768C59.5451 176.188 58.4779 175.374 57.6026 174.374C56.7273 173.374 56.0616 172.209 55.645 170.948C53.8375 165.613 55.4002 156.034 60.6731 154.135C65.946 152.237 69.0645 160.494 73.191 164.245C78.9532 169.486 73.7457 175.268 68.4711 177.172Z" fill="#BFC4EA"/>
<path opacity="0.2" d="M255.138 11.701C256.288 10.4821 257.67 9.50598 259.203 8.83051C260.737 8.15504 262.39 7.79392 264.066 7.76853C265.742 7.74314 267.405 8.054 268.959 8.6827C270.512 9.3114 271.923 10.2451 273.109 11.4286C278.139 16.4152 281.75 28.0844 276.856 33.2241C271.962 38.3638 263.797 30.8245 257.052 28.941C247.61 26.3088 250.25 16.835 255.138 11.701Z" fill="#BFC4EA"/>
<path opacity="0.2" d="M67.7904 56.7386C64.9018 64.8437 64.295 73.5855 66.036 82.0115C68.4775 93.2497 76.9032 103.126 75.4667 115.108C74.6037 122.301 74.757 128.893 74.5867 135.956C74.229 150.461 84.3751 162.471 96.2756 168.484C105.928 173.369 116.931 174.656 127.537 173.72C137.087 172.881 146.489 170.379 155.568 167.27C164.312 164.281 172.806 160.565 182.254 160.843C190.094 161.075 197.368 163.986 204.811 166.011C222.582 170.839 243.607 170.152 258.715 159.686C275.272 148.215 281.96 126.442 276.175 107.421C273.069 97.2094 268.93 88.3766 270.423 77.5016C271.161 72.152 272.263 66.723 271.246 61.4074C270.315 56.5287 268.561 50.9522 265.387 47.1286C256.825 36.8208 242.341 31.6471 229.469 32.3789C202.415 33.8312 200.882 43.8156 185.933 46.0848C156.897 50.4983 150.379 23.1944 120.026 18.8886C99.6936 16.0181 80.5824 32.1463 71.339 48.8078C69.9303 51.3446 68.7431 53.998 67.7904 56.7386Z" fill="#BFC4EA"/>
<g filter="url(#filter0_d_5022_57371)">
<path d="M177.047 34.2575L99.6453 59.8041C97.7517 60.4291 96.7237 62.4696 97.3492 64.3617L122.917 141.698C123.543 143.59 125.585 144.617 127.479 143.992L204.88 118.446C206.774 117.821 207.802 115.78 207.176 113.888L181.608 36.5517C180.983 34.6597 178.941 33.6325 177.047 34.2575Z" fill="white"/>
</g>
<path opacity="0.2" d="M175.627 42.6828L105.719 65.7561L128.812 135.605L198.72 112.532L175.627 42.6828Z" fill="#6D79E8"/>
<path opacity="0.47" d="M128.219 136.165L122.989 120.355L130.637 101.935C131.141 100.708 132.087 99.7144 133.289 99.1513C134.491 98.5882 135.861 98.4964 137.127 98.8942L151.281 103.291C151.687 103.417 152.124 103.404 152.522 103.253C152.919 103.102 153.254 102.821 153.473 102.457L165.26 82.8567C166.481 80.8392 168.39 79.33 170.636 78.6067C172.882 77.8833 175.314 77.9945 177.484 78.9197L190.463 84.5019L190.583 84.865L199.741 112.555L198.935 112.821L128.219 136.165ZM124.812 120.423L129.309 134.038L197.595 111.499L189.078 85.784L176.797 80.5081C175.006 79.7444 173 79.6521 171.146 80.2483C169.293 80.8444 167.717 82.0889 166.708 83.7531L154.961 103.336C154.546 104.028 153.911 104.56 153.157 104.847C152.403 105.134 151.575 105.159 150.805 104.919L136.622 100.545C135.761 100.274 134.83 100.336 134.013 100.719C133.196 101.101 132.552 101.776 132.21 102.61L124.812 120.423Z" fill="white"/>
<path opacity="0.47" d="M151.554 81.7052C149.269 81.709 147.067 80.8526 145.387 79.3068C143.706 77.7609 142.67 75.6391 142.484 73.3641C142.299 71.089 142.979 68.8278 144.388 67.031C145.797 65.2341 147.831 64.0336 150.086 63.6686C152.341 63.3036 154.651 63.8009 156.556 65.0614C158.46 66.3219 159.82 68.2531 160.363 70.4702C160.906 72.6873 160.593 75.0275 159.487 77.0245C158.38 79.0214 156.562 80.5286 154.393 81.2457C153.477 81.5505 152.519 81.7057 151.554 81.7052ZM151.554 65.299C149.992 65.2962 148.47 65.7884 147.206 66.7048C145.942 67.6211 145.002 68.9145 144.52 70.3987C144.038 71.8829 144.04 73.4816 144.525 74.9647C145.01 76.4479 145.953 77.7391 147.219 78.6526C148.485 79.5661 150.009 80.0549 151.57 80.0486C153.132 80.0424 154.652 79.5413 155.91 78.6177C157.169 77.694 158.102 76.3952 158.575 74.9082C159.048 73.4212 159.037 71.8226 158.543 70.3423C158.05 68.8782 157.112 67.6048 155.858 66.7004C154.605 65.796 153.1 65.306 151.554 65.299Z" fill="white"/>
<g filter="url(#filter1_d_5022_57371)">
<path d="M230.44 64.1814H170.018C168.024 64.1814 166.407 65.7968 166.407 67.7894V128.161C166.407 130.154 168.024 131.769 170.018 131.769H230.44C232.435 131.769 234.051 130.154 234.051 128.161V67.7894C234.051 65.7968 232.435 64.1814 230.44 64.1814Z" fill="white"/>
</g>
<path opacity="0.39" d="M228.254 69.9395H172.13V126.017H228.254V69.9395Z" fill="#6D79E8"/>
<path opacity="0.47" d="M229.18 126.504H171.358V113.53L181.351 101.969C182.041 101.167 183.006 100.653 184.057 100.527C185.108 100.401 186.168 100.672 187.028 101.288L196.221 107.852C196.448 108.012 196.722 108.091 197 108.078C197.277 108.064 197.543 107.959 197.754 107.778L210.977 96.432C212.381 95.2309 214.173 94.577 216.021 94.5905C217.87 94.6041 219.651 95.2842 221.038 96.5058L229.163 103.705L229.18 126.504ZM173.061 124.802H227.477V104.448L219.925 97.7538C218.847 96.8059 217.463 96.2783 216.027 96.2679C214.59 96.2575 213.199 96.7649 212.107 97.6971L198.883 109.043C198.384 109.473 197.754 109.722 197.095 109.752C196.436 109.782 195.787 109.59 195.25 109.207L186.052 102.644C185.536 102.272 184.9 102.108 184.269 102.184C183.638 102.259 183.058 102.57 182.645 103.052L173.061 114.16V124.802Z" fill="white"/>
<path opacity="0.47" d="M203.647 93C202.241 92.9989 200.868 92.5814 199.699 91.8002C198.531 91.0191 197.621 89.9095 197.084 88.6115C196.547 87.3136 196.407 85.8857 196.682 84.5084C196.957 83.131 197.634 81.8659 198.628 80.8732C199.623 79.8805 200.889 79.2046 202.268 78.931C203.647 78.6574 205.076 78.7984 206.374 79.3361C207.673 79.8739 208.783 80.7842 209.564 81.9521C210.345 83.12 210.761 84.4929 210.761 85.8975C210.76 87.7817 210.01 89.5882 208.676 90.92C207.342 92.2519 205.533 93 203.647 93ZM203.647 80.5195C202.578 80.5206 201.534 80.8383 200.646 81.4324C199.758 82.0265 199.066 82.8704 198.657 83.8573C198.249 84.8443 198.143 85.93 198.352 86.9772C198.561 88.0245 199.077 88.9862 199.833 89.741C200.589 90.4957 201.552 91.0095 202.6 91.2174C203.649 91.4254 204.735 91.3181 205.723 90.9092C206.71 90.5002 207.554 89.808 208.147 88.92C208.741 88.032 209.058 86.9881 209.058 85.9201C209.06 85.2087 208.922 84.5039 208.651 83.846C208.38 83.1881 207.982 82.5901 207.479 82.0863C206.977 81.5825 206.379 81.1827 205.722 80.91C205.064 80.6372 204.359 80.4968 203.647 80.4968V80.5195Z" fill="white"/>
<g filter="url(#filter2_d_5022_57371)">
<path d="M172.548 98.8124L138.393 111.599C136.526 112.298 135.579 114.377 136.279 116.243L149.076 150.37C149.776 152.236 151.857 153.181 153.724 152.482L187.879 139.696C189.747 138.997 190.694 136.917 189.994 135.051L177.197 100.925C176.497 99.0591 174.416 98.1132 172.548 98.8124Z" fill="white"/>
</g>
<path opacity="0.3" d="M173.724 102.339L139.776 115.048L152.496 148.967L186.443 136.258L173.724 102.339Z" fill="#6D79E8"/>
<path opacity="0.47" d="M151.968 149.826L148.88 141.594L152.338 132.228C152.599 131.515 153.12 130.925 153.796 130.576C154.472 130.228 155.254 130.145 155.988 130.345L163.04 132.228C163.148 132.257 163.262 132.249 163.364 132.206C163.467 132.163 163.553 132.087 163.608 131.99L169.03 122.102C169.643 120.995 170.635 120.146 171.824 119.71C173.013 119.275 174.319 119.282 175.503 119.731L182.18 122.295L187.511 136.511L151.968 149.826ZM150.697 141.589L152.968 147.636L185.331 135.524L180.868 123.611L174.906 121.342C174.108 121.036 173.225 121.028 172.422 121.321C171.618 121.614 170.948 122.188 170.535 122.936L165.118 132.813C164.881 133.245 164.505 133.585 164.051 133.779C163.597 133.972 163.091 134.007 162.614 133.879L155.528 131.984C155.204 131.897 154.859 131.934 154.56 132.089C154.262 132.243 154.032 132.503 153.916 132.818L150.697 141.589Z" fill="white"/>
<path opacity="0.47" d="M162.472 122.454C161.578 122.456 160.7 122.213 159.934 121.752C159.168 121.291 158.543 120.628 158.127 119.837C157.711 119.045 157.52 118.155 157.575 117.263C157.63 116.371 157.929 115.511 158.439 114.777C158.949 114.042 159.65 113.462 160.467 113.098C161.284 112.734 162.185 112.6 163.073 112.712C163.96 112.824 164.8 113.177 165.501 113.732C166.202 114.287 166.737 115.024 167.049 115.862C167.504 117.073 167.461 118.414 166.929 119.593C166.397 120.772 165.419 121.693 164.21 122.153C163.654 122.36 163.065 122.462 162.472 122.454ZM162.472 114.376C161.792 114.375 161.13 114.592 160.582 114.994C160.034 115.396 159.629 115.962 159.425 116.611C159.222 117.259 159.231 117.955 159.452 118.598C159.672 119.24 160.093 119.796 160.651 120.183C161.21 120.571 161.878 120.769 162.557 120.751C163.237 120.732 163.893 120.497 164.43 120.08C164.966 119.663 165.356 119.086 165.541 118.432C165.726 117.778 165.697 117.083 165.459 116.446C165.228 115.839 164.819 115.317 164.284 114.947C163.75 114.577 163.116 114.378 162.467 114.376H162.472Z" fill="white"/>
<defs>
<filter id="filter0_d_5022_57371" x="91.166" y="27.0745" width="122.194" height="122.101" filterUnits="userSpaceOnUse" color-interpolation-filters="sRGB">
<feFlood flood-opacity="0" result="BackgroundImageFix"/>
<feColorMatrix in="SourceAlpha" type="matrix" values="0 0 0 0 0 0 0 0 0 0 0 0 0 0 0 0 0 0 127 0" result="hardAlpha"/>
<feOffset dy="-1"/>
<feGaussianBlur stdDeviation="3"/>
<feComposite in2="hardAlpha" operator="out"/>
<feColorMatrix type="matrix" values="0 0 0 0 0.776471 0 0 0 0 0.796078 0 0 0 0 0.964706 0 0 0 0.24 0"/>
<feBlend mode="normal" in2="BackgroundImageFix" result="effect1_dropShadow_5022_57371"/>
<feBlend mode="normal" in="SourceGraphic" in2="effect1_dropShadow_5022_57371" result="shape"/>
</filter>
<filter id="filter1_d_5022_57371" x="160.407" y="57.1814" width="79.6445" height="79.5876" filterUnits="userSpaceOnUse" color-interpolation-filters="sRGB">
<feFlood flood-opacity="0" result="BackgroundImageFix"/>
<feColorMatrix in="SourceAlpha" type="matrix" values="0 0 0 0 0 0 0 0 0 0 0 0 0 0 0 0 0 0 127 0" result="hardAlpha"/>
<feOffset dy="-1"/>
<feGaussianBlur stdDeviation="3"/>
<feComposite in2="hardAlpha" operator="out"/>
<feColorMatrix type="matrix" values="0 0 0 0 0.776471 0 0 0 0 0.796078 0 0 0 0 0.964706 0 0 0 0.24 0"/>
<feBlend mode="normal" in2="BackgroundImageFix" result="effect1_dropShadow_5022_57371"/>
<feBlend mode="normal" in="SourceGraphic" in2="effect1_dropShadow_5022_57371" result="shape"/>
</filter>
<filter id="filter2_d_5022_57371" x="130.048" y="91.582" width="66.1763" height="66.1306" filterUnits="userSpaceOnUse" color-interpolation-filters="sRGB">
<feFlood flood-opacity="0" result="BackgroundImageFix"/>
<feColorMatrix in="SourceAlpha" type="matrix" values="0 0 0 0 0 0 0 0 0 0 0 0 0 0 0 0 0 0 127 0" result="hardAlpha"/>
<feOffset dy="-1"/>
<feGaussianBlur stdDeviation="3"/>
<feComposite in2="hardAlpha" operator="out"/>
<feColorMatrix type="matrix" values="0 0 0 0 0.776471 0 0 0 0 0.796078 0 0 0 0 0.964706 0 0 0 0.24 0"/>
<feBlend mode="normal" in2="BackgroundImageFix" result="effect1_dropShadow_5022_57371"/>
<feBlend mode="normal" in="SourceGraphic" in2="effect1_dropShadow_5022_57371" result="shape"/>
</filter>
</defs>
</svg>
