<svg width="46" height="46" viewBox="0 0 46 46" fill="none" xmlns="http://www.w3.org/2000/svg">
<rect x="3" y="3" width="40" height="40" rx="20" fill="#E1E3E9"/>
<path d="M20.5 21.9583C19.2333 21.9583 18.2083 20.9333 18.2083 19.6667C18.2083 18.4 19.2333 17.375 20.5 17.375C21.7667 17.375 22.7917 18.4 22.7917 19.6667C22.7917 20.9333 21.7667 21.9583 20.5 21.9583ZM20.5 18.625C19.925 18.625 19.4583 19.0917 19.4583 19.6667C19.4583 20.2417 19.925 20.7083 20.5 20.7083C21.075 20.7083 21.5417 20.2417 21.5417 19.6667C21.5417 19.0917 21.075 18.625 20.5 18.625Z" fill="#464962"/>
<path d="M25.5 31.9584H20.5C15.975 31.9584 14.0417 30.025 14.0417 25.5V20.5C14.0417 15.975 15.975 14.0417 20.5 14.0417H23.8333C24.175 14.0417 24.4583 14.325 24.4583 14.6667C24.4583 15.0084 24.175 15.2917 23.8333 15.2917H20.5C16.6583 15.2917 15.2917 16.6584 15.2917 20.5V25.5C15.2917 29.3417 16.6583 30.7084 20.5 30.7084H25.5C29.3417 30.7084 30.7083 29.3417 30.7083 25.5V21.3334C30.7083 20.9917 30.9917 20.7084 31.3333 20.7084C31.675 20.7084 31.9583 20.9917 31.9583 21.3334V25.5C31.9583 30.025 30.025 31.9584 25.5 31.9584Z" fill="#464962"/>
<path d="M28 20.2916C27.6583 20.2916 27.375 20.0083 27.375 19.6666V14.6666C27.375 14.4166 27.525 14.1833 27.7583 14.0916C27.9917 14 28.2583 14.05 28.4417 14.225L30.1083 15.8916C30.35 16.1333 30.35 16.5333 30.1083 16.775C29.8667 17.0166 29.4667 17.0166 29.225 16.775L28.625 16.175V19.6666C28.625 20.0083 28.3417 20.2916 28 20.2916Z" fill="#464962"/>
<path d="M26.3333 16.9583C26.175 16.9583 26.0167 16.9 25.8917 16.775C25.65 16.5333 25.65 16.1333 25.8917 15.8917L27.5583 14.225C27.8 13.9833 28.2 13.9833 28.4417 14.225C28.6833 14.4667 28.6833 14.8667 28.4417 15.1083L26.775 16.775C26.65 16.9 26.4917 16.9583 26.3333 16.9583Z" fill="#464962"/>
<path d="M15.225 29.4167C15.025 29.4167 14.825 29.3167 14.7083 29.1417C14.5167 28.8583 14.5917 28.4667 14.875 28.275L18.9833 25.5167C19.8833 24.9167 21.125 24.9833 21.9417 25.675L22.2167 25.9167C22.6333 26.275 23.3417 26.275 23.75 25.9167L27.2167 22.9417C28.1 22.1833 29.4917 22.1833 30.3833 22.9417L31.7417 24.1083C32 24.3333 32.0333 24.725 31.8083 24.9917C31.5833 25.25 31.1833 25.2833 30.925 25.0583L29.5667 23.8917C29.15 23.5333 28.45 23.5333 28.0333 23.8917L24.5667 26.8667C23.6833 27.625 22.2917 27.625 21.4 26.8667L21.125 26.625C20.7417 26.3 20.1083 26.2667 19.6833 26.5583L15.5833 29.3167C15.4667 29.3833 15.3417 29.4167 15.225 29.4167Z" fill="#464962"/>
<rect x="3" y="3" width="40" height="40" rx="20" stroke="#F3F4F8" stroke-width="6"/>
</svg>
