<svg width="20" height="20" viewBox="0 0 20 20" fill="none" xmlns="http://www.w3.org/2000/svg">
<path d="M6.66669 1.66675V4.16675" stroke="#FFFFFF" stroke-width="1.5" stroke-miterlimit="10" stroke-linecap="round" stroke-linejoin="round"/>
<path d="M13.3333 1.66675V4.16675" stroke="#FFFFFF" stroke-width="1.5" stroke-miterlimit="10" stroke-linecap="round" stroke-linejoin="round"/>
<path d="M17.5 7.08341V11.3584C16.7583 10.7668 15.8167 10.4167 14.7917 10.4167C13.7667 10.4167 12.8083 10.7751 12.0583 11.3834C11.05 12.1751 10.4167 13.4167 10.4167 14.7917C10.4167 15.6084 10.65 16.3918 11.05 17.0418C11.3583 17.5501 11.7583 17.9917 12.2333 18.3334H6.66667C3.75 18.3334 2.5 16.6667 2.5 14.1667V7.08341C2.5 4.58341 3.75 2.91675 6.66667 2.91675H13.3333C16.25 2.91675 17.5 4.58341 17.5 7.08341Z" stroke="#FFFFFF" stroke-width="1.5" stroke-miterlimit="10" stroke-linecap="round" stroke-linejoin="round"/>
<path d="M5.83331 9.16675H10.8333" stroke="#FFFFFF" stroke-width="1.5" stroke-miterlimit="10" stroke-linecap="round" stroke-linejoin="round"/>
<path d="M5.83331 13.3333H8.01664" stroke="#FFFFFF" stroke-width="1.5" stroke-miterlimit="10" stroke-linecap="round" stroke-linejoin="round"/>
<path d="M19.1667 14.7917C19.1667 15.6084 18.9333 16.3918 18.5333 17.0418C18.3 17.4418 18.0084 17.7917 17.6667 18.0751C16.9 18.7584 15.9 19.1667 14.7917 19.1667C13.8334 19.1667 12.95 18.8584 12.2333 18.3334C11.7583 17.9917 11.3584 17.5501 11.05 17.0418C10.65 16.3918 10.4167 15.6084 10.4167 14.7917C10.4167 13.4167 11.05 12.1751 12.0584 11.3834C12.8084 10.7751 13.7667 10.4167 14.7917 10.4167C15.8167 10.4167 16.7584 10.7668 17.5 11.3584C18.5167 12.1584 19.1667 13.4001 19.1667 14.7917Z" stroke="#FFFFFF" stroke-width="1.5" stroke-miterlimit="10" stroke-linecap="round" stroke-linejoin="round"/>
<path d="M14.7916 16.8749C14.7916 15.7249 15.725 14.7916 16.875 14.7916C15.725 14.7916 14.7916 13.8583 14.7916 12.7083C14.7916 13.8583 13.8583 14.7916 12.7083 14.7916C13.8583 14.7916 14.7916 15.7249 14.7916 16.8749Z" stroke="#FFFFFF" stroke-width="1.5" stroke-linecap="round" stroke-linejoin="round"/>
</svg>
