<svg width="20" height="20" viewBox="0 0 20 20" fill="none" xmlns="http://www.w3.org/2000/svg">
<path d="M1.66699 16.6668H3.33366M3.33366 16.6668H12.5003M3.33366 16.6668V11.9736C3.33366 11.5358 3.33366 11.3168 3.38616 11.1126C3.43269 10.9317 3.50927 10.76 3.61279 10.6045C3.72954 10.4291 3.89294 10.2822 4.21826 9.98991L6.13624 8.2668C6.76519 7.70176 7.0799 7.41903 7.43574 7.31177C7.74944 7.21721 8.08425 7.21721 8.39795 7.31177C8.75408 7.41912 9.06922 7.70199 9.69922 8.26798L11.6159 9.98991C11.9416 10.2825 12.1041 10.429 12.2209 10.6045C12.3244 10.76 12.4009 10.9317 12.4474 11.1126C12.4999 11.3168 12.5003 11.5358 12.5003 11.9736V16.6668M12.5003 16.6668H16.667M16.667 16.6668H18.3337M16.667 16.6668V5.99759C16.667 5.06599 16.667 4.5995 16.4855 4.24333C16.3257 3.92972 16.0701 3.67494 15.7565 3.51515C15.4 3.3335 14.9339 3.3335 14.0005 3.3335H8.50049C7.56707 3.3335 7.10001 3.3335 6.74349 3.51515C6.42989 3.67494 6.1751 3.92972 6.01531 4.24333C5.83366 4.59985 5.83366 5.0669 5.83366 6.00033V8.33366" stroke="#5A5C6F" stroke-width="1.5" stroke-linecap="round" stroke-linejoin="round"/>
</svg>
