<svg width="20" height="20" viewBox="0 0 20 20" fill="none" xmlns="http://www.w3.org/2000/svg">
<path d="M16.6673 6.87484V14.9998C16.6673 17.4998 15.1757 18.3332 13.334 18.3332H6.66732C4.82565 18.3332 3.33398 17.4998 3.33398 14.9998V6.87484C3.33398 4.1665 4.82565 3.5415 6.66732 3.5415C6.66732 4.05817 6.87563 4.52483 7.2173 4.8665C7.55896 5.20817 8.02565 5.4165 8.54232 5.4165H11.459C12.4923 5.4165 13.334 4.57484 13.334 3.5415C15.1757 3.5415 16.6673 4.1665 16.6673 6.87484Z" stroke="#6d79e8" stroke-width="1.5" stroke-linecap="round" stroke-linejoin="round"/>
<path d="M13.3327 3.5415C13.3327 4.57484 12.491 5.4165 11.4577 5.4165H8.54102C8.02435 5.4165 7.55766 5.20817 7.21599 4.8665C6.87433 4.52483 6.66602 4.05817 6.66602 3.5415C6.66602 2.50817 7.50768 1.6665 8.54102 1.6665H11.4577C11.9743 1.6665 12.441 1.87484 12.7827 2.21651C13.1244 2.55817 13.3327 3.02484 13.3327 3.5415Z" stroke="#6d79e8" stroke-width="1.5" stroke-linecap="round" stroke-linejoin="round"/>
<path d="M6.66602 10.8335H9.99935" stroke="#6d79e8" stroke-width="1.5" stroke-linecap="round" stroke-linejoin="round"/>
<path d="M6.66602 14.1665H13.3327" stroke="#6d79e8" stroke-width="1.5" stroke-linecap="round" stroke-linejoin="round"/>
</svg>
