<svg width="20" height="20" viewBox="0 0 20 20" fill="none" xmlns="http://www.w3.org/2000/svg">
<path d="M3 7H16.3333M3 7V14.3335C3 15.2669 3 15.7334 3.18166 16.0899C3.34144 16.4035 3.59623 16.6587 3.90983 16.8185C4.266 17 4.73249 17 5.66409 17H13.6692C14.6008 17 15.0667 17 15.4228 16.8185C15.7364 16.6587 15.9921 16.4035 16.1519 16.0899C16.3333 15.7337 16.3333 15.2679 16.3333 14.3363V7M3 7V6.3335C3 5.40008 3 4.93302 3.18166 4.5765C3.34144 4.26289 3.59623 4.00811 3.90983 3.84832C4.26635 3.66667 4.73341 3.66667 5.66683 3.66667H6.33333M16.3333 7V6.33076C16.3333 5.39916 16.3333 4.93267 16.1519 4.5765C15.9921 4.26289 15.7364 4.00811 15.4228 3.84832C15.0663 3.66667 14.6003 3.66667 13.6668 3.66667H13M13 2V3.66667M13 3.66667H6.33333M6.33333 2V3.66667" stroke="#5A5C6F" stroke-width="1.5" stroke-linecap="round" stroke-linejoin="round"/>
</svg>
