<svg width="20" height="20" viewBox="0 0 20 20" fill="none" xmlns="http://www.w3.org/2000/svg">
<path d="M9.99935 1.6665C8.16075 1.6665 6.66602 3.16282 6.66602 5.00335C6.66602 6.80876 8.07654 8.26995 9.91514 8.33317C9.97128 8.32615 10.0274 8.32615 10.0695 8.33317C10.0836 8.33317 10.0906 8.33317 10.1046 8.33317C10.1116 8.33317 10.1116 8.33317 10.1186 8.33317C11.9151 8.26995 13.3257 6.80876 13.3327 5.00335C13.3327 3.16282 11.8379 1.6665 9.99935 1.6665Z" stroke="#5A5C6F" stroke-width="1.5"/>
<path d="M14.2086 11.9652C11.8968 10.4563 8.12672 10.4563 5.79835 11.9652C4.74603 12.6548 4.16602 13.5877 4.16602 14.5855C4.16602 15.5834 4.74603 16.5082 5.79007 17.1896C6.95011 17.9522 8.47473 18.3335 9.99935 18.3335C11.524 18.3335 13.0486 17.9522 14.2086 17.1896C15.2527 16.5001 15.8327 15.5752 15.8327 14.5693C15.8244 13.5715 15.2527 12.6466 14.2086 11.9652Z" stroke="#5A5C6F" stroke-width="1.5"/>
</svg>
