<svg width="49" height="48" viewBox="0 0 49 48" fill="none" xmlns="http://www.w3.org/2000/svg">
<rect x="1" y="0.5" width="47" height="47" rx="11.5" fill="#F2F1FF"/>
<path d="M31.1199 17.7704C28.6045 15.4099 24.5255 15.4099 22.0272 17.7704C20.2681 19.4108 19.7412 21.7713 20.4211 23.8518L16.4271 27.6126C16.1467 27.8847 15.9512 28.4208 16.0107 28.8049L16.2656 30.5493C16.3591 31.1254 16.9285 31.6696 17.5403 31.7496L19.3928 31.9896C19.8007 32.0456 20.3701 31.8696 20.659 31.5895L21.3558 30.9334C21.5258 30.7814 21.5258 30.5253 21.3558 30.3653L19.7073 28.8129C19.4608 28.5809 19.4608 28.1968 19.7073 27.9647C19.9537 27.7327 20.3616 27.7327 20.608 27.9647L22.2651 29.5251C22.4266 29.6771 22.6985 29.6771 22.86 29.5251L24.6615 27.8367C26.8624 28.4848 29.3693 27.9807 31.1199 26.3403C33.6267 23.9798 33.6267 20.1309 31.1199 17.7704ZM26.6245 23.9958C25.4518 23.9958 24.5 23.0996 24.5 21.9954C24.5 20.8911 25.4518 19.9949 26.6245 19.9949C27.7972 19.9949 28.749 20.8911 28.749 21.9954C28.749 23.0996 27.7972 23.9958 26.6245 23.9958Z" fill="#6D79E8"/>
<rect x="1" y="0.5" width="47" height="47" rx="11.5" stroke="#BFC4EA"/>
</svg>
