<svg width="22" height="18" viewBox="0 0 22 18" fill="none" xmlns="http://www.w3.org/2000/svg">
<path d="M1.00037 17.0002H3.00037M3.00037 17.0002H14.0004M3.00037 17.0002V11.3684C3.00037 10.843 3.00037 10.5802 3.06337 10.3352C3.1192 10.118 3.2111 9.91209 3.33533 9.72542C3.47542 9.51492 3.6715 9.33866 4.06189 8.98794L6.36347 6.92021C7.1182 6.24216 7.49585 5.90288 7.92286 5.77417C8.2993 5.6607 8.70107 5.6607 9.07751 5.77417C9.50487 5.90299 9.88304 6.24244 10.639 6.92163L12.939 8.98794C13.3299 9.33905 13.5249 9.5148 13.665 9.72542C13.7893 9.91208 13.8811 10.118 13.9369 10.3352C13.9999 10.5802 14.0004 10.843 14.0004 11.3684V17.0002M14.0004 17.0002H19.0004M19.0004 17.0002H21.0004M19.0004 17.0002V4.19715C19.0004 3.07924 19.0004 2.51945 18.7826 2.09204C18.5908 1.71572 18.2841 1.40998 17.9078 1.21823C17.4799 1.00024 16.9207 1.00024 15.8006 1.00024H9.20056C8.08046 1.00024 7.51999 1.00024 7.09216 1.21823C6.71584 1.40998 6.4101 1.71572 6.21835 2.09204C6.00037 2.51986 6.00037 3.08033 6.00037 4.20044V7.00044" stroke="#F2F1FF" stroke-width="1.5" stroke-linecap="round" stroke-linejoin="round"/>
</svg>
