<svg width="48" height="48" viewBox="0 0 48 48" fill="none" xmlns="http://www.w3.org/2000/svg">
<rect width="48" height="48" rx="8" fill="#F2F1FF"/>
<path d="M31 21C31 22.45 30.57 23.78 29.83 24.89C28.75 26.49 27.04 27.62 25.05 27.91C24.71 27.97 24.36 28 24 28C23.64 28 23.29 27.97 22.95 27.91C20.96 27.62 19.25 26.49 18.17 24.89C17.43 23.78 17 22.45 17 21C17 17.13 20.13 14 24 14C27.87 14 31 17.13 31 21Z" stroke="#6D79E8" stroke-width="1.5" stroke-linecap="round" stroke-linejoin="round"/>
<path d="M33.2501 30.4699L31.6001 30.8599C31.2301 30.9499 30.9401 31.2299 30.8601 31.5999L30.5101 33.0699C30.3201 33.8699 29.3001 34.1099 28.7701 33.4799L24.0001 27.9999L19.2301 33.4899C18.7001 34.1199 17.6801 33.8799 17.4901 33.0799L17.1401 31.6099C17.0501 31.2399 16.7601 30.9499 16.4001 30.8699L14.7501 30.4799C13.9901 30.2999 13.7201 29.3499 14.2701 28.7999L18.1701 24.8999C19.2501 26.4999 20.9601 27.6299 22.9501 27.9199C23.2901 27.9799 23.6401 28.0099 24.0001 28.0099C24.3601 28.0099 24.7101 27.9799 25.0501 27.9199C27.0401 27.6299 28.7501 26.4999 29.8301 24.8999L33.7301 28.7999C34.2801 29.3399 34.0101 30.2899 33.2501 30.4699Z" stroke="#6D79E8" stroke-width="1.5" stroke-linecap="round" stroke-linejoin="round"/>
<path d="M24.58 17.98L25.17 19.16C25.25 19.32 25.46 19.48 25.65 19.51L26.72 19.69C27.4 19.8 27.56 20.3 27.07 20.79L26.24 21.62C26.1 21.76 26.02 22.03 26.07 22.23L26.31 23.26C26.5 24.07 26.07 24.39 25.35 23.96L24.35 23.37C24.17 23.26 23.87 23.26 23.69 23.37L22.69 23.96C21.97 24.38 21.54 24.07 21.73 23.26L21.97 22.23C22.01 22.04 21.94 21.76 21.8 21.62L20.97 20.79C20.48 20.3 20.64 19.81 21.32 19.69L22.39 19.51C22.57 19.48 22.78 19.32 22.86 19.16L23.45 17.98C23.74 17.34 24.26 17.34 24.58 17.98Z" stroke="#6D79E8" stroke-width="1.5" stroke-linecap="round" stroke-linejoin="round"/>
</svg>
