<svg width="48" height="48" viewBox="0 0 48 48" fill="none" xmlns="http://www.w3.org/2000/svg">
<rect width="48" height="48" rx="8" fill="#FFE9F3"/>
<path d="M16 21.3333H33M16 21.3333V30.6224C16 31.8048 16 32.3956 16.2316 32.8472C16.4353 33.2444 16.7602 33.5677 17.16 33.7701C17.6142 34 18.2089 34 19.3967 34H29.6033C30.7911 34 31.385 34 31.8391 33.7701C32.239 33.5677 32.5649 33.2444 32.7686 32.8472C33 32.3961 33 31.806 33 30.626V21.3333M16 21.3333V20.4891C16 19.3068 16 18.7152 16.2316 18.2636C16.4353 17.8663 16.7602 17.5436 17.16 17.3412C17.6146 17.1111 18.2101 17.1111 19.4002 17.1111H20.25M33 21.3333V20.4856C33 19.3056 33 18.7147 32.7686 18.2636C32.5649 17.8663 32.239 17.5436 31.8391 17.3412C31.3845 17.1111 30.7903 17.1111 29.6002 17.1111H28.75M20.25 17.1111H28.75M20.25 17.1111V15M28.75 17.1111V15M27.6875 25.5556L23.4375 29.7778L21.3125 27.6667" stroke="#FD0555" stroke-width="1.5" stroke-linecap="round" stroke-linejoin="round"/>
</svg>
