<svg width="20" height="20" viewBox="0 0 20 20" fill="none" xmlns="http://www.w3.org/2000/svg">
<path d="M12.1092 7.89172L7.89258 12.1084C7.35091 11.5667 7.01758 10.8251 7.01758 10.0001C7.01758 8.35006 8.35091 7.01672 10.0009 7.01672C10.8259 7.01672 11.5676 7.35006 12.1092 7.89172Z" stroke="#6D6F81" stroke-width="1.5" stroke-linecap="round" stroke-linejoin="round"/>
<path d="M14.8499 4.80828C13.3915 3.70828 11.7249 3.10828 9.99987 3.10828C7.0582 3.10828 4.31654 4.84161 2.4082 7.84161C1.6582 9.01661 1.6582 10.9916 2.4082 12.1666C3.06654 13.1999 3.8332 14.0916 4.66654 14.8083" stroke="#6D6F81" stroke-width="1.5" stroke-linecap="round" stroke-linejoin="round"/>
<path d="M7.01758 16.2749C7.96758 16.6749 8.97591 16.8916 10.0009 16.8916C12.9426 16.8916 15.6842 15.1583 17.5926 12.1583C18.3426 10.9833 18.3426 9.00828 17.5926 7.83328C17.3176 7.39994 17.0176 6.99161 16.7092 6.60828" stroke="#6D6F81" stroke-width="1.5" stroke-linecap="round" stroke-linejoin="round"/>
<path d="M12.9242 10.5834C12.7076 11.7584 11.7492 12.7167 10.5742 12.9334" stroke="#6D6F81" stroke-width="1.5" stroke-linecap="round" stroke-linejoin="round"/>
<path d="M7.89102 12.1083L1.66602 18.3333" stroke="#6D6F81" stroke-width="1.5" stroke-linecap="round" stroke-linejoin="round"/>
<path d="M18.3324 1.66663L12.1074 7.89163" stroke="#6D6F81" stroke-width="1.5" stroke-linecap="round" stroke-linejoin="round"/>
</svg>
