<svg width="20" height="20" viewBox="0 0 20 20" fill="none" xmlns="http://www.w3.org/2000/svg">
<path d="M12.9842 10.0001C12.9842 11.6501 11.6509 12.9834 10.0009 12.9834C8.35091 12.9834 7.01758 11.6501 7.01758 10.0001C7.01758 8.35006 8.35091 7.01672 10.0009 7.01672C11.6509 7.01672 12.9842 8.35006 12.9842 10.0001Z" stroke="#6D6F81" stroke-width="1.5" stroke-linecap="round" stroke-linejoin="round"/>
<path d="M9.99987 16.8916C12.9415 16.8916 15.6832 15.1583 17.5915 12.1583C18.3415 10.9833 18.3415 9.00831 17.5915 7.83331C15.6832 4.83331 12.9415 3.09998 9.99987 3.09998C7.0582 3.09998 4.31654 4.83331 2.4082 7.83331C1.6582 9.00831 1.6582 10.9833 2.4082 12.1583C4.31654 15.1583 7.0582 16.8916 9.99987 16.8916Z" stroke="#6D6F81" stroke-width="1.5" stroke-linecap="round" stroke-linejoin="round"/>
</svg>
