<svg width="49" height="48" viewBox="0 0 49 48" fill="none" xmlns="http://www.w3.org/2000/svg">
<rect x="1" y="0.5" width="47" height="47" rx="11.5" fill="#F2F1FF"/>
<path d="M24.5001 28.2801C25.2202 28.2801 25.8041 27.6963 25.8041 26.9761C25.8041 26.2559 25.2202 25.6721 24.5001 25.6721C23.7799 25.6721 23.196 26.2559 23.196 26.9761C23.196 27.6963 23.7799 28.2801 24.5001 28.2801Z" fill="#6D79E8"/>
<path d="M29.5241 22.024V21.024C29.5241 18.864 29.0041 16 24.5 16C19.996 16 19.476 18.864 19.476 21.024V22.024C17.236 22.304 16.5 23.44 16.5 26.232V27.7201C16.5 31.0001 17.5 32.0001 20.78 32.0001H28.2201C31.5001 32.0001 32.5001 31.0001 32.5001 27.7201V26.232C32.5001 23.44 31.7641 22.304 29.5241 22.024ZM24.5 29.3921C23.164 29.3921 22.084 28.3041 22.084 26.976C22.084 25.64 23.172 24.56 24.5 24.56C25.828 24.56 26.916 25.648 26.916 26.976C26.916 28.3121 25.836 29.3921 24.5 29.3921ZM20.78 21.952C20.716 21.952 20.66 21.952 20.596 21.952V21.024C20.596 18.68 21.26 17.12 24.5 17.12C27.74 17.12 28.4041 18.68 28.4041 21.024V21.96C28.3401 21.96 28.2841 21.96 28.2201 21.96H20.78V21.952Z" fill="#6D79E8"/>
<rect x="1" y="0.5" width="47" height="47" rx="11.5" stroke="#BFC4EA"/>
</svg>
