<svg width="16" height="16" viewBox="0 0 16 16" fill="none" xmlns="http://www.w3.org/2000/svg">
<path d="M6.70099 1.6862L2.68766 4.3062C1.40099 5.1462 1.40099 7.0262 2.68766 7.8662L6.70099 10.4862C7.42099 10.9595 8.60766 10.9595 9.32766 10.4862L13.321 7.8662C14.601 7.0262 14.601 5.15287 13.321 4.31287L9.32766 1.69287C8.60766 1.21287 7.42099 1.21287 6.70099 1.6862Z" stroke="#6D6F81" stroke-width="1.5" stroke-linecap="round" stroke-linejoin="round"/>
<path d="M3.75276 8.71973L3.74609 11.8464C3.74609 12.6931 4.39943 13.5997 5.19943 13.8664L7.32609 14.5731C7.69276 14.6931 8.29943 14.6931 8.67276 14.5731L10.7994 13.8664C11.5994 13.5997 12.2528 12.6931 12.2528 11.8464V8.75306" stroke="#6D6F81" stroke-width="1.5" stroke-linecap="round" stroke-linejoin="round"/>
<path d="M14.2676 10V6" stroke="#6D6F81" stroke-width="1.5" stroke-linecap="round" stroke-linejoin="round"/>
</svg>
