<svg width="18" height="16" viewBox="0 0 18 16" fill="none" xmlns="http://www.w3.org/2000/svg">
<path d="M1.66675 14.6667H16.3334" stroke="#6D6F81" stroke-width="1.5" stroke-miterlimit="10" stroke-linecap="round" stroke-linejoin="round"/>
<path d="M14.1868 14.6733V11.7" stroke="#6D6F81" stroke-width="1.5" stroke-miterlimit="10" stroke-linecap="round" stroke-linejoin="round"/>
<path d="M14.2001 7.26001C13.3867 7.26001 12.7334 7.91335 12.7334 8.72668V10.24C12.7334 11.0533 13.3867 11.7067 14.2001 11.7067C15.0134 11.7067 15.6667 11.0533 15.6667 10.24V8.72668C15.6667 7.91335 15.0134 7.26001 14.2001 7.26001Z" stroke="#6D6F81" stroke-width="1.5" stroke-miterlimit="10" stroke-linecap="round" stroke-linejoin="round"/>
<path d="M2.3999 14.6666V4.01994C2.3999 2.67994 3.0666 2.00659 4.39327 2.00659H8.54659C9.87326 2.00659 10.5332 2.67994 10.5332 4.01994V14.6666" stroke="#6D6F81" stroke-width="1.5" stroke-miterlimit="10" stroke-linecap="round" stroke-linejoin="round"/>
<path d="M4.8667 5.5H8.16671" stroke="#6D6F81" stroke-width="1.5" stroke-miterlimit="10" stroke-linecap="round" stroke-linejoin="round"/>
<path d="M4.8667 8H8.16671" stroke="#6D6F81" stroke-width="1.5" stroke-miterlimit="10" stroke-linecap="round" stroke-linejoin="round"/>
<path d="M6.5 14.6667V12.1667" stroke="#6D6F81" stroke-width="1.5" stroke-miterlimit="10" stroke-linecap="round" stroke-linejoin="round"/>
</svg>
