<svg width="20" height="20" viewBox="0 0 20 20" fill="none" xmlns="http://www.w3.org/2000/svg">
<path d="M17.8217 6.2553L15.2246 16.6824C15.0397 17.4607 14.3461 18.0002 13.5446 18.0002H3.41809C2.25439 18.0002 1.42209 16.8595 1.76889 15.7421L5.01336 5.32283C5.23686 4.59841 5.90734 4.09741 6.66259 4.09741H16.1417C16.8738 4.09741 17.4827 4.5444 17.737 5.16093C17.8834 5.49231 17.9142 5.86997 17.8217 6.2553Z" stroke="#5A5C6F" stroke-width="1.5" stroke-miterlimit="10"/>
<path d="M13.2515 18.0003H16.9352C17.9294 18.0003 18.7077 17.1602 18.6384 16.1661L17.8754 5.66968" stroke="#5A5C6F" stroke-width="1.5" stroke-miterlimit="10" stroke-linecap="round" stroke-linejoin="round"/>
<path d="M8.38086 5.96264L9.18235 2.63342" stroke="#5A5C6F" stroke-width="1.5" stroke-miterlimit="10" stroke-linecap="round" stroke-linejoin="round"/>
<path d="M13.5444 5.96989L14.2689 2.62524" stroke="#5A5C6F" stroke-width="1.5" stroke-miterlimit="10" stroke-linecap="round" stroke-linejoin="round"/>
<path d="M6.85498 10.2937H13.0203" stroke="#5A5C6F" stroke-width="1.5" stroke-miterlimit="10" stroke-linecap="round" stroke-linejoin="round"/>
<path d="M6.08447 13.376H12.2498" stroke="#5A5C6F" stroke-width="1.5" stroke-miterlimit="10" stroke-linecap="round" stroke-linejoin="round"/>
</svg>
