<svg width="24" height="24" viewBox="0 0 24 24" fill="none" xmlns="http://www.w3.org/2000/svg">
<path d="M4.5 9H21M4.5 9V17.8002C4.5 18.9203 4.5 19.4801 4.7248 19.9079C4.92254 20.2842 5.23783 20.5905 5.62592 20.7822C6.06668 21 6.64396 21 7.79681 21H17.7032C18.856 21 19.4325 21 19.8733 20.7822C20.2613 20.5905 20.5777 20.2842 20.7754 19.9079C21 19.4805 21 18.9215 21 17.8036V9M4.5 9V8.2002C4.5 7.08009 4.5 6.51962 4.7248 6.0918C4.92254 5.71547 5.23783 5.40973 5.62592 5.21799C6.06711 5 6.64509 5 7.8002 5H8.625M21 9V8.19691C21 7.07899 21 6.5192 20.7754 6.0918C20.5777 5.71547 20.2613 5.40973 19.8733 5.21799C19.4321 5 18.8553 5 17.7002 5H16.875M16.875 3V5M16.875 5H8.625M8.625 3V5" stroke="#5A5C6F" stroke-width="1.5" stroke-linecap="round" stroke-linejoin="round"/>
</svg>
