<svg width="32" height="32" viewBox="0 0 32 32" fill="none" xmlns="http://www.w3.org/2000/svg">
<rect width="32" height="32" rx="16" fill="#FFE9EA"/>
<path fill-rule="evenodd" clip-rule="evenodd" d="M22.449 11.1284C22.449 8.83596 20.8818 7.91699 18.6253 7.91699H13.3262C11.1391 7.91699 9.5 8.7733 9.5 10.9755V23.2453C9.5 23.8502 10.1508 24.2311 10.6779 23.9354L15.9962 20.9521L21.2686 23.9304C21.7966 24.2278 22.449 23.8468 22.449 23.2411V11.1284Z" stroke="#FA6C6C" stroke-width="1.5" stroke-linecap="round" stroke-linejoin="round"/>
<path fill-rule="evenodd" clip-rule="evenodd" d="M16.3357 11.1925L16.849 12.2317C16.899 12.3333 16.9957 12.4042 17.1082 12.4208L18.2557 12.5883C18.5399 12.63 18.6524 12.9783 18.4474 13.1775L17.6174 13.9858C17.5357 14.065 17.499 14.1792 17.5174 14.2917L17.7132 15.4333C17.7615 15.7158 17.4657 15.9308 17.2124 15.7975L16.1865 15.2583C16.0857 15.205 15.9657 15.205 15.8649 15.2583L14.8399 15.7975C14.5857 15.9308 14.2899 15.7158 14.3382 15.4333L14.534 14.2917C14.5532 14.1792 14.5157 14.065 14.434 13.9858L13.6049 13.1775C13.3999 12.9783 13.5124 12.63 13.7957 12.5883L14.9432 12.4208C15.0557 12.4042 15.1532 12.3333 15.2032 12.2317L15.7157 11.1925C15.8424 10.9358 16.209 10.9358 16.3357 11.1925Z" stroke="#FA6C6C" stroke-width="1.5" stroke-linecap="round" stroke-linejoin="round"/>
</svg>
