<svg width="16" height="16" viewBox="0 0 16 16" fill="none" xmlns="http://www.w3.org/2000/svg">
<path d="M12.6673 6C12.6673 6 12.3102 10.5732 12.103 12.4995C12.0044 13.4196 11.4539 13.9587 10.5522 13.9757C8.83625 14.0076 7.11835 14.0097 5.40309 13.9723C4.53559 13.954 3.99431 13.4081 3.89763 12.5043C3.68914 10.561 3.33398 6 3.33398 6" stroke="#6D79E8" stroke-linecap="round" stroke-linejoin="round"/>
<path d="M6.66602 12.0007L6.66602 7.33398" stroke="#6D79E8" stroke-linecap="round" stroke-linejoin="round"/>
<path d="M9.33203 12.0007L9.33203 7.33398" stroke="#6D79E8" stroke-linecap="round" stroke-linejoin="round"/>
<path d="M13.8053 4.15951H2.5" stroke="#6D79E8" stroke-linecap="round" stroke-linejoin="round"/>
<path d="M11.6264 4.15998C11.1031 4.15998 10.6524 3.78998 10.5497 3.27732L10.3877 2.46665C10.2877 2.09265 9.94907 1.83398 9.56307 1.83398H6.74107C6.35507 1.83398 6.0164 2.09265 5.9164 2.46665L5.7544 3.27732C5.65173 3.78998 5.20107 4.15998 4.67773 4.15998" stroke="#6D79E8" stroke-linecap="round" stroke-linejoin="round"/>
</svg>
