<svg width="24" height="24" viewBox="0 0 24 24" fill="none" xmlns="http://www.w3.org/2000/svg">
<path d="M20.0007 8.25V18C20.0007 21 18.2107 22 16.0007 22H8.00073C5.79073 22 4.00073 21 4.00073 18V8.25C4.00073 5 5.79073 4.25 8.00073 4.25C8.00073 4.87 8.25071 5.43 8.66071 5.84C9.07071 6.25 9.63073 6.5 10.2507 6.5H13.7507C14.9907 6.5 16.0007 5.49 16.0007 4.25C18.2107 4.25 20.0007 5 20.0007 8.25Z" stroke="#5A5C6F" stroke-width="1.5" stroke-linecap="round" stroke-linejoin="round"/>
<path d="M15.9993 4.25C15.9993 5.49 14.9893 6.5 13.7493 6.5H10.2493C9.62927 6.5 9.06924 6.25 8.65924 5.84C8.24924 5.43 7.99927 4.87 7.99927 4.25C7.99927 3.01 9.00927 2 10.2493 2H13.7493C14.3693 2 14.9293 2.25 15.3393 2.66C15.7493 3.07 15.9993 3.63 15.9993 4.25Z" stroke="#5A5C6F" stroke-width="1.5" stroke-linecap="round" stroke-linejoin="round"/>
<path d="M7.99927 13H11.9993" stroke="#5A5C6F" stroke-width="1.5" stroke-linecap="round" stroke-linejoin="round"/>
<path d="M7.99927 17H15.9993" stroke="#5A5C6F" stroke-width="1.5" stroke-linecap="round" stroke-linejoin="round"/>
</svg>
