<svg width="16" height="16" viewBox="0 0 16 16" fill="none" xmlns="http://www.w3.org/2000/svg">
<path d="M5.99967 11.3333H9.99967M5.99967 9.33333H9.99967M8.66659 2.00058C8.6029 2 8.53126 2 8.44948 2H5.46647C4.71973 2 4.34609 2 4.06087 2.14533C3.80999 2.27316 3.60616 2.47698 3.47833 2.72786C3.33301 3.01308 3.33301 3.38673 3.33301 4.13346V11.8668C3.33301 12.6135 3.33301 12.9867 3.47833 13.2719C3.60616 13.5228 3.80999 13.727 4.06087 13.8548C4.34581 14 4.71901 14 5.4643 14L10.5351 14C11.2803 14 11.653 14 11.9379 13.8548C12.1888 13.727 12.3933 13.5228 12.5212 13.2719C12.6663 12.987 12.6663 12.6143 12.6663 11.8691V6.21712C12.6663 6.13535 12.6663 6.06369 12.6657 6M8.66659 2.00058C8.8569 2.00232 8.97682 2.00938 9.09179 2.03698C9.22784 2.06964 9.35824 2.12351 9.47754 2.19661C9.61205 2.27904 9.72755 2.39454 9.95801 2.625L12.0417 4.70866C12.2723 4.93926 12.3869 5.05424 12.4694 5.1888C12.5425 5.30809 12.5966 5.43817 12.6292 5.57422C12.6568 5.68919 12.664 5.8097 12.6657 6M8.66659 2.00058L8.66634 3.86681C8.66634 4.61354 8.66634 4.98677 8.81167 5.27198C8.9395 5.52287 9.14332 5.72699 9.39421 5.85482C9.67914 6 10.0523 6 10.7976 6H12.6657" stroke="#6D6F81" stroke-width="1.5" stroke-linecap="round" stroke-linejoin="round"/>
</svg>
