<svg width="17" height="16" viewBox="0 0 17 16" fill="none" xmlns="http://www.w3.org/2000/svg">
<path d="M9.33333 2.00058C9.26967 2 9.19819 2 9.11648 2H6.13346C5.38673 2 5.01308 2 4.72786 2.14532C4.47698 2.27316 4.27316 2.47698 4.14532 2.72786C4 3.01308 4 3.38673 4 4.13346V11.8668C4 12.6135 4 12.9867 4.14532 13.2719C4.27316 13.5228 4.47698 13.727 4.72786 13.8548C5.0128 14 5.386 14 6.13129 14L11.2021 14C11.9473 14 12.32 14 12.6049 13.8548C12.8558 13.727 13.0603 13.5228 13.1882 13.2719C13.3333 12.987 13.3333 12.6143 13.3333 11.8691V6.21712C13.3333 6.13531 13.3333 6.06374 13.3327 6M9.33333 2.00058C9.52376 2.00231 9.64423 2.00923 9.75923 2.03684C9.89528 2.0695 10.0252 2.12351 10.1445 2.19661C10.279 2.27904 10.3945 2.39455 10.625 2.625L12.7087 4.70866C12.9393 4.93926 13.0539 5.05424 13.1364 5.1888C13.2095 5.30809 13.2636 5.43817 13.2962 5.57422C13.3238 5.68917 13.3309 5.80967 13.3327 6M9.33333 2.00058V3.86667C9.33333 4.6134 9.33333 4.98651 9.47866 5.27173C9.60649 5.52261 9.81032 5.72699 10.0612 5.85482C10.3461 6 10.7193 6 11.4646 6H13.3327M13.3327 6H13.3335" stroke="#6D6F81" stroke-width="1.5" stroke-linecap="round" stroke-linejoin="round"/>
</svg>
