<svg width="80" height="80" viewBox="0 0 80 80" fill="none" xmlns="http://www.w3.org/2000/svg">
<path opacity="0.4" d="M72.1999 34.8L68.9333 48.7333C66.1333 60.7667 60.5999 65.6333 50.1999 64.6333C48.5333 64.5 46.7333 64.2 44.7999 63.7333L39.1999 62.4C25.2999 59.1 20.9999 52.2333 24.2666 38.3L27.5333 24.3333C28.1999 21.5 28.9999 19.0333 29.9999 17C33.8999 8.93334 40.5333 6.76667 51.6666 9.40001L57.2333 10.7C71.2 13.9667 75.4666 20.8667 72.1999 34.8Z" fill="#BFC4EA"/>
<path d="M50.2002 64.6333C48.1335 66.0333 45.5335 67.2 42.3668 68.2333L37.1002 69.9667C23.8668 74.2333 16.9002 70.6667 12.6002 57.4333L8.33349 44.2667C4.06683 31.0333 7.60016 24.0333 20.8335 19.7667L26.1002 18.0333C27.4668 17.6 28.7668 17.2333 30.0002 17C29.0002 19.0333 28.2002 21.5 27.5335 24.3333L24.2668 38.3C21.0002 52.2333 25.3002 59.1 39.2002 62.4L44.8002 63.7333C46.7335 64.2 48.5335 64.5 50.2002 64.6333Z" fill="#9098DE"/>
<path d="M58.2996 35.0333C58.0996 35.0333 57.8996 35 57.6662 34.9667L41.4996 30.8667C40.1662 30.5333 39.3662 29.1667 39.6996 27.8333C40.0329 26.5 41.3996 25.7 42.7329 26.0333L58.8996 30.1333C60.2329 30.4667 61.0329 31.8333 60.6996 33.1667C60.4329 34.2667 59.3996 35.0333 58.2996 35.0333Z" fill="#9098DE"/>
<path d="M48.5331 46.3C48.3331 46.3 48.1331 46.2667 47.8998 46.2333L38.1998 43.7667C36.8664 43.4333 36.0664 42.0667 36.3998 40.7333C36.7331 39.4 38.0998 38.6 39.4331 38.9333L49.1331 41.4C50.4664 41.7333 51.2664 43.1 50.9331 44.4333C50.6664 45.5667 49.6664 46.3 48.5331 46.3Z" fill="#9098DE"/>
</svg>
