<svg width="24" height="25" viewBox="0 0 24 25" fill="none" xmlns="http://www.w3.org/2000/svg">
<g id="User / User_Card_ID">
<path id="Vector" d="M6 18.5C6.06366 18.5 6.12926 18.5 6.19691 18.5H12M6 18.5C5.01173 18.4992 4.49334 18.4868 4.0918 18.2822C3.71547 18.0905 3.40973 17.7837 3.21799 17.4074C3 16.9796 3 16.4203 3 15.3002V9.7002C3 8.58009 3 8.01962 3.21799 7.5918C3.40973 7.21547 3.71547 6.90973 4.0918 6.71799C4.51962 6.5 5.08009 6.5 6.2002 6.5H17.8002C18.9203 6.5 19.4796 6.5 19.9074 6.71799C20.2837 6.90973 20.5905 7.21547 20.7822 7.5918C21 8.0192 21 8.57899 21 9.69691V15.3031C21 16.421 21 16.98 20.7822 17.4074C20.5905 17.7837 20.2837 18.0905 19.9074 18.2822C19.48 18.5 18.921 18.5 17.8031 18.5H12M6 18.5C6.00004 17.3954 7.34317 16.5 9 16.5C10.6569 16.5 12 17.3954 12 18.5M6 18.5C6 18.5 6 18.4999 6 18.5ZM18 14.5H14M18 11.5H15M9 13.5C7.89543 13.5 7 12.6046 7 11.5C7 10.3954 7.89543 9.5 9 9.5C10.1046 9.5 11 10.3954 11 11.5C11 12.6046 10.1046 13.5 9 13.5Z" stroke="#5A5C6F" stroke-width="1.5" stroke-linecap="round" stroke-linejoin="round"/>
</g>
</svg>
