<svg width="24" height="24" viewBox="0 0 24 24" fill="none" xmlns="http://www.w3.org/2000/svg">
<path d="M19 9C19 9 18.4643 15.8598 18.1535 18.7493C18.0056 20.1294 17.1798 20.9381 15.8273 20.9636C13.2534 21.0115 10.6766 21.0145 8.10366 20.9585C6.80241 20.931 5.99049 20.1121 5.84547 18.7564C5.53273 15.8414 5 9 5 9" stroke="#ED3A3A" stroke-width="1.5" stroke-linecap="round" stroke-linejoin="round"/>
<path d="M9.99951 18L9.99951 11" stroke="#ED3A3A" stroke-width="1.5" stroke-linecap="round" stroke-linejoin="round"/>
<path d="M13.9995 18L13.9995 11" stroke="#ED3A3A" stroke-width="1.5" stroke-linecap="round" stroke-linejoin="round"/>
<path d="M20.708 6.23975H3.75" stroke="#ED3A3A" stroke-width="1.5" stroke-linecap="round" stroke-linejoin="round"/>
<path d="M17.4406 6.23973C16.6556 6.23973 15.9796 5.68473 15.8256 4.91573L15.5826 3.69973C15.4326 3.13873 14.9246 2.75073 14.3456 2.75073H10.1126C9.53358 2.75073 9.02558 3.13873 8.87558 3.69973L8.63258 4.91573C8.47858 5.68473 7.80258 6.23973 7.01758 6.23973" stroke="#ED3A3A" stroke-width="1.5" stroke-linecap="round" stroke-linejoin="round"/>
</svg>
