<svg width="22" height="22" viewBox="0 0 22 22" fill="none" xmlns="http://www.w3.org/2000/svg">
<path d="M9 15.9498H5.21C1.84 15.9498 1 15.1098 1 11.7398V5.73979C1 2.36979 1.84 1.52979 5.21 1.52979H15.74C19.11 1.52979 19.95 2.36979 19.95 5.73979" stroke="#5A5C6F" stroke-width="1.5" stroke-linecap="round" stroke-linejoin="round"/>
<path d="M9 20.4697V15.9497" stroke="#5A5C6F" stroke-width="1.5" stroke-linecap="round" stroke-linejoin="round"/>
<path d="M1 11.9497H9" stroke="#5A5C6F" stroke-width="1.5" stroke-linecap="round" stroke-linejoin="round"/>
<path d="M5.73999 20.4697H8.99999" stroke="#5A5C6F" stroke-width="1.5" stroke-linecap="round" stroke-linejoin="round"/>
<path d="M21 11.7998V17.5098C21 19.8798 20.41 20.4698 18.04 20.4698H14.49C12.12 20.4698 11.53 19.8798 11.53 17.5098V11.7998C11.53 9.42984 12.12 8.83984 14.49 8.83984H18.04C20.41 8.83984 21 9.42984 21 11.7998Z" stroke="#5A5C6F" stroke-width="1.5" stroke-linecap="round" stroke-linejoin="round"/>
<path d="M16.2445 17.25H16.2535" stroke="#5A5C6F" stroke-width="2" stroke-linecap="round" stroke-linejoin="round"/>
</svg>
