<svg width="17" height="16" viewBox="0 0 17 16" fill="none" xmlns="http://www.w3.org/2000/svg">
<g clip-path="url(#clip0_401_2336)">
<path d="M11.1673 10.6667L8.50065 8L5.83398 10.6667" stroke="#464962" stroke-width="1.5" stroke-linecap="round" stroke-linejoin="round"/>
<path d="M8.5 8V14" stroke="#464962" stroke-width="1.5" stroke-linecap="round" stroke-linejoin="round"/>
<path d="M14.0943 12.2603C14.7445 11.9058 15.2582 11.3449 15.5542 10.6661C15.8502 9.98723 15.9118 9.22914 15.7291 8.51144C15.5464 7.79375 15.1299 7.15732 14.5454 6.70261C13.9609 6.2479 13.2415 6.0008 12.501 6.00031H11.661C11.4592 5.21981 11.0831 4.4952 10.5609 3.88098C10.0388 3.26675 9.38418 2.77888 8.64635 2.45405C7.90852 2.12922 7.10665 1.97589 6.30103 2.00557C5.49541 2.03525 4.70699 2.24718 3.99507 2.62543C3.28314 3.00367 2.66622 3.53838 2.1907 4.18937C1.71517 4.84036 1.39341 5.59067 1.2496 6.38391C1.1058 7.17715 1.14369 7.99267 1.36043 8.76915C1.57716 9.54564 1.96711 10.2629 2.50095 10.867" stroke="#464962" stroke-width="1.5" stroke-linecap="round" stroke-linejoin="round"/>
<path d="M11.1673 10.6667L8.50065 8L5.83398 10.6667" stroke="#464962" stroke-width="1.5" stroke-linecap="round" stroke-linejoin="round"/>
</g>
<defs>
<clipPath id="clip0_401_2336">
<rect width="16" height="16" fill="white" transform="translate(0.5)"/>
</clipPath>
</defs>
</svg>
