<svg width="32" height="32" viewBox="0 0 32 32" fill="none" xmlns="http://www.w3.org/2000/svg">
<rect x="0.5" y="0.5" width="31" height="31" rx="7.5" fill="#F2F1FF"/>
<path d="M20.3152 14.429C19.3503 14.429 18.9559 13.7058 19.4356 12.8187C19.7128 12.3045 19.5476 11.649 19.0625 11.3552L18.1403 10.7958C17.7192 10.5303 17.1754 10.6885 16.9249 11.1349L16.8663 11.2422C16.3865 12.1293 15.5976 12.1293 15.1125 11.2422L15.0538 11.1349C14.8139 10.6885 14.2702 10.5303 13.8491 10.7958L12.9269 11.3552C12.4418 11.649 12.2765 12.3101 12.5537 12.8243C13.0388 13.7058 12.6444 14.429 11.6795 14.429C11.1251 14.429 10.6667 14.9093 10.6667 15.5026V16.4971C10.6667 17.0847 11.1198 17.5706 11.6795 17.5706C12.6444 17.5706 13.0388 18.2939 12.5537 19.181C12.2765 19.6952 12.4418 20.3506 12.9269 20.6444L13.8491 21.2038C14.2702 21.4694 14.8139 21.3112 15.0645 20.8648L15.1231 20.7575C15.6029 19.8703 16.3918 19.8703 16.8769 20.7575L16.9356 20.8648C17.1861 21.3112 17.7298 21.4694 18.1509 21.2038L19.0732 20.6444C19.5582 20.3506 19.7235 19.6895 19.4463 19.181C18.9612 18.2939 19.3557 17.5706 20.3205 17.5706C20.8749 17.5706 21.3334 17.0904 21.3334 16.4971V15.5026C21.328 14.915 20.8749 14.429 20.3152 14.429ZM15.9974 17.8362C15.0432 17.8362 14.2649 17.0113 14.2649 15.9998C14.2649 14.9884 15.0432 14.1635 15.9974 14.1635C16.9515 14.1635 17.7298 14.9884 17.7298 15.9998C17.7298 17.0113 16.9515 17.8362 15.9974 17.8362Z" fill="#6D79E8"/>
<rect x="0.5" y="0.5" width="31" height="31" rx="7.5" stroke="#BFC4EA"/>
</svg>
